#define max_pressed_width 7
#define max_pressed_height 7
static unsigned char max_pressed_bits[] = {
   0x00, 0x14, 0x22, 0x41, 0x22, 0x14, 0x00 };
