#define max_toggled_pressed_width 7
#define max_toggled_pressed_height 7
static unsigned char max_toggled_pressed_bits[] = {
   0x00, 0x70, 0x40, 0x41, 0x01, 0x07, 0x00 };
